<svg width="1339" height="110" viewBox="0 0 1339 110" fill="none" xmlns="http://www.w3.org/2000/svg">
<path d="M0.000450278 110V21C42.0002 39 65.7584 65.0251 115.724 65.0251C168.273 65.0251 248.575 0.0249023 296.627 0.0249023C349.323 0.0249023 423.267 65.5648 469.415 65.0251C512.858 64.5115 587.159 -0.0273276 630.601 0.0249023C673.774 0.0771323 747.466 64.2329 790.631 65.0251C838.126 65.8956 921.733 -1.48106 969.211 0.0249023C1009.7 1.31324 1077.14 64.851 1117.65 65.0251C1158.95 65.1992 1228.26 0.303462 1269.56 0.0249023C1285.71 -0.0795575 1312.26 9.21736 1339 20.8124V110C1062.47 110 0.000450278 110 0.000450278 110Z" fill="white"/>
</svg>
