<svg width="2349" height="308" viewBox="0 0 2349 308" fill="none" xmlns="http://www.w3.org/2000/svg">
<mask id="mask0_109_56" style="mask-type:alpha" maskUnits="userSpaceOnUse" x="0" y="0" width="2349" height="308">
<rect width="2349" height="308" fill="#D9D9D9"/>
</mask>
<g mask="url(#mask0_109_56)">
<mask id="mask1_109_56" style="mask-type:alpha" maskUnits="userSpaceOnUse" x="-298" y="0" width="3327" height="520">
<path fill-rule="evenodd" clip-rule="evenodd" d="M1388.22 32.378C1380.79 28.5388 1373.33 24.6799 1365.66 21L1365.66 20.8124C1339.63 9.21734 1313.79 -0.0795844 1298.06 0.0248755C1278.06 0.163504 1251.29 16.3057 1224.5 32.4669C1197.46 48.78 1170.38 65.1125 1150.18 65.0251C1130.23 64.937 1103.57 48.6247 1076.98 32.3631C1051.03 16.488 1025.16 0.661298 1005.69 0.0248755C982.437 -0.732794 950.282 15.9453 918.18 32.5957C886.476 49.0401 854.823 65.4576 831.85 65.0251C811.008 64.6321 782.854 48.649 754.641 32.6323C725.976 16.3591 697.25 0.0511979 676.07 0.0248755C654.799 -0.00139556 625.928 16.3137 597.103 32.6031C568.621 48.699 540.182 64.7698 519.164 65.0251C497.325 65.2874 469.091 49.9327 439.948 34.0832C409.144 17.3304 377.323 0.0248755 350.964 0.0248755C328.098 0.0248755 297.732 15.5564 266.687 31.4351C234.221 48.0402 201.013 65.0251 174.864 65.0251C151.51 65.0251 121.133 49.9531 89.6339 34.3244C55.5306 17.4037 20.1119 -0.169711 -9.13397 0.0248755C-26.537 0.142437 -51.5454 14.247 -78.2103 29.2858C-108.804 46.5405 -141.579 65.0251 -167.549 65.0251C-211.698 65.0251 -243.778 48.5679 -276.275 31.897C-283.449 28.2168 -290.643 24.5262 -297.992 21V520H1365.66H3028.31V20.8124C3002.27 9.21734 2976.43 -0.0795844 2960.71 0.0248755C2940.7 0.163504 2913.94 16.3057 2887.15 32.4669C2860.11 48.78 2833.03 65.1125 2812.83 65.0251C2792.88 64.937 2766.21 48.6247 2739.63 32.3631C2713.68 16.488 2687.81 0.661298 2668.34 0.0248755C2645.08 -0.732794 2612.93 15.9453 2580.83 32.5958C2549.12 49.0402 2517.47 65.4576 2494.5 65.0251C2473.66 64.6321 2445.5 48.649 2417.29 32.6323C2388.62 16.3591 2359.9 0.0511979 2338.72 0.0248755C2317.45 -0.00139557 2288.58 16.3137 2259.75 32.6031C2231.27 48.699 2202.83 64.7698 2181.81 65.0251C2159.97 65.2874 2131.74 49.9327 2102.6 34.0832C2071.79 17.3304 2039.97 0.0248755 2013.61 0.0248755C1990.75 0.0248755 1960.38 15.5563 1929.33 31.4351C1896.87 48.0402 1863.66 65.0251 1837.51 65.0251C1814.16 65.0251 1783.78 49.9531 1752.28 34.3244C1718.18 17.4037 1682.76 -0.169711 1653.51 0.0248755C1636.11 0.142437 1611.1 14.247 1584.44 29.2858C1553.84 46.5405 1521.07 65.0251 1495.1 65.0251C1451.37 65.0251 1420.15 48.883 1388.22 32.378Z" fill="#FFC554"/>
</mask>
<g mask="url(#mask1_109_56)">
<path fill-rule="evenodd" clip-rule="evenodd" d="M1388.22 32.378C1380.79 28.5388 1373.33 24.6799 1365.66 21L1365.66 20.8124C1339.63 9.21734 1313.79 -0.0795844 1298.06 0.0248755C1278.06 0.163504 1251.29 16.3057 1224.5 32.4669C1197.46 48.78 1170.38 65.1125 1150.18 65.0251C1130.23 64.937 1103.57 48.6247 1076.98 32.3631C1051.03 16.488 1025.16 0.661298 1005.69 0.0248755C982.437 -0.732794 950.282 15.9453 918.18 32.5957C886.476 49.0401 854.823 65.4576 831.85 65.0251C811.008 64.6321 782.854 48.649 754.641 32.6323C725.976 16.3591 697.25 0.0511979 676.07 0.0248755C654.799 -0.00139556 625.928 16.3137 597.103 32.6031C568.621 48.699 540.182 64.7698 519.164 65.0251C497.325 65.2874 469.091 49.9327 439.948 34.0832C409.144 17.3304 377.323 0.0248755 350.964 0.0248755C328.098 0.0248755 297.732 15.5564 266.687 31.4351C234.221 48.0402 201.013 65.0251 174.864 65.0251C151.51 65.0251 121.133 49.9531 89.6339 34.3244C55.5306 17.4037 20.1119 -0.169711 -9.13397 0.0248755C-26.537 0.142437 -51.5454 14.247 -78.2103 29.2858C-108.804 46.5405 -141.579 65.0251 -167.549 65.0251C-211.698 65.0251 -243.778 48.5679 -276.275 31.897C-283.449 28.2168 -290.643 24.5262 -297.992 21V520H1365.66H3028.31V20.8124C3002.27 9.21734 2976.43 -0.0795844 2960.71 0.0248755C2940.7 0.163504 2913.94 16.3057 2887.15 32.4669C2860.11 48.78 2833.03 65.1125 2812.83 65.0251C2792.88 64.937 2766.21 48.6247 2739.63 32.3631C2713.68 16.488 2687.81 0.661298 2668.34 0.0248755C2645.08 -0.732794 2612.93 15.9453 2580.83 32.5958C2549.12 49.0402 2517.47 65.4576 2494.5 65.0251C2473.66 64.6321 2445.5 48.649 2417.29 32.6323C2388.62 16.3591 2359.9 0.0511979 2338.72 0.0248755C2317.45 -0.00139557 2288.58 16.3137 2259.75 32.6031C2231.27 48.699 2202.83 64.7698 2181.81 65.0251C2159.97 65.2874 2131.74 49.9327 2102.6 34.0832C2071.79 17.3304 2039.97 0.0248755 2013.61 0.0248755C1990.75 0.0248755 1960.38 15.5563 1929.33 31.4351C1896.87 48.0402 1863.66 65.0251 1837.51 65.0251C1814.16 65.0251 1783.78 49.9531 1752.28 34.3244C1718.18 17.4037 1682.76 -0.169711 1653.51 0.0248755C1636.11 0.142437 1611.1 14.247 1584.44 29.2858C1553.84 46.5405 1521.07 65.0251 1495.1 65.0251C1451.37 65.0251 1420.15 48.883 1388.22 32.378Z" fill="#FFC554"/>
<path d="M1146.35 105.342C1158.37 65.1835 1132.29 7 1090.68 16.5L1064 24L1104.26 -30H2190.09V59.5402C2190.09 59.5402 2165.83 54.8021 2161.55 79.2823C2157.27 103.762 2176.57 143.806 2152.99 145.616C2129.11 147.447 2164.05 80.7428 2140.15 79.2823C2126.69 78.4598 2122.5 92.1691 2110.18 98.2346C2096.82 104.817 2087.36 87.1791 2074.51 110.87C2058.82 136.929 2093.78 186.679 2058.82 185.1C2023.86 183.52 2057 145.874 2044.55 126.663C2035.32 112.415 2043.12 97.4449 2013.16 98.2346C1974.63 98.2346 2004.6 162.199 1983.2 162.199C1973.92 156.671 1981.06 105.342 1966.07 121.925C1951.09 138.508 1973.21 199.841 1954.66 203.263C1937.54 204.842 1959.65 151.143 1946.81 117.187C1939.4 100.604 1941.1 91.3319 1917.56 84.81C1901.87 80.8616 1891.16 114.818 1888.31 166.937C1885.46 219.056 1912.57 273.544 1882.6 275.913C1852.64 278.282 1869.05 231.691 1870.48 185.1C1871.9 138.508 1864.23 136.254 1844.79 117.187C1833.97 106.576 1824.94 91.166 1811.97 98.2346C1800.03 104.747 1799.85 114.028 1802.7 134.56C1805.55 155.092 1819.33 212.077 1792 211.159C1764.78 210.245 1792.13 163.127 1783.44 134.56C1777.16 113.907 1787.72 95.8656 1760.61 84.81C1751.33 84.0203 1741.35 87.1791 1739.92 110.87C1738.49 134.56 1754.9 168.516 1731.36 166.937C1707.82 165.358 1720.66 117.187 1720.66 117.187C1720.66 117.187 1727.08 91.1275 1712.1 84.81C1697.11 78.4925 1702.11 121.135 1683.56 117.187C1665.01 113.239 1661.44 71.3854 1643.61 72.1751C1625.77 72.9648 1625.06 83.2306 1625.06 117.187C1625.06 151.143 1632.91 234.06 1607.94 235.64C1582.97 237.219 1590.81 204.052 1593.67 173.255C1596.52 142.457 1587.96 108.501 1577.97 84.81C1567.98 61.1195 1545.87 50.0639 1534.45 63.4886C1523.04 76.9132 1527.32 70.5957 1528.03 91.9172C1528.75 113.239 1547.62 148.774 1519.47 148.774C1491.33 148.774 1513.05 77.7029 1503.06 77.7029C1493.08 77.7029 1491.62 89.4791 1482.37 91.9172C1475.6 93.7029 1464.54 91.9172 1464.54 91.9172C1464.54 91.9172 1440.28 91.1275 1435.29 105.342C1430.29 119.556 1435.29 126.663 1435.29 134.56C1435.29 142.457 1445.99 185.889 1419.59 185.1C1393.2 184.31 1410.32 134.56 1407.46 105.342C1405.32 96.6553 1407.46 83.2306 1384.64 84.81C1376.23 85.4757 1366.8 84.81 1366.8 98.2346C1366.8 111.659 1358.95 97.445 1356.81 110.87C1354.67 124.294 1366.8 162.199 1348.25 162.199C1329.7 162.199 1343.97 134.56 1343.26 126.663C1342.54 118.766 1340.4 116.397 1333.27 117.187C1326.13 117.977 1324.71 125.084 1324.71 148.774C1324.71 172.465 1343.26 203.263 1319 203.263C1294.74 203.263 1316.86 145.616 1312.58 126.663C1308.3 107.711 1306.16 86.3894 1285.47 84.81C1273.34 84.81 1251.94 110.87 1251.94 173.255C1247.66 213.528 1280.48 277.493 1241.95 275.913C1203.43 274.334 1251.94 201.683 1229.82 134.56C1219.84 117.187 1214.11 124.776 1204.85 117.187C1194.07 108.345 1194.15 91.9172 1179.17 91.9172C1164.19 91.9172 1165.62 105.342 1165.62 105.342C1165.62 105.342 1190.12 211.159 1154.91 211.159C1119.71 211.159 1134.34 145.5 1146.35 105.342Z" fill="url(#paint0_linear_109_56)"/>
</g>
</g>
<defs>
<linearGradient id="paint0_linear_109_56" x1="1627.04" y1="-30" x2="1627.04" y2="177" gradientUnits="userSpaceOnUse">
<stop stop-color="white"/>
<stop offset="1" stop-color="white"/>
</linearGradient>
</defs>
</svg>
