<svg width="1495" height="269" viewBox="0 0 1495 269" fill="none" xmlns="http://www.w3.org/2000/svg">
<path style="filter : drop-shadow(0px 2px #ccc)" d="M69.7193 203.659C43.2063 203.659 65.7915 119.163 57.9358 97.8418C47.2976 68.9683 28.3815 54.9875 0 52V0H1495V52.0402C1495 52.0402 1461.16 47.3021 1455.27 71.7823C1449.38 96.2624 1475.95 136.306 1443.48 138.116C1410.62 139.947 1458.7 73.2428 1425.81 71.7823C1407.29 70.9598 1401.51 84.6691 1384.57 90.7346C1366.17 97.3173 1353.14 79.6791 1335.47 103.37C1313.87 129.429 1361.98 179.179 1313.87 177.6C1265.75 176.02 1311.36 138.374 1294.23 119.163C1281.52 104.915 1292.26 89.9449 1251.02 90.7346C1197.99 90.7346 1239.24 154.699 1209.78 154.699C1197.01 149.171 1206.83 97.8418 1186.21 114.425C1165.59 131.008 1196.03 192.341 1170.5 195.763C1146.93 197.342 1177.37 143.643 1159.7 109.687C1149.5 93.1037 1151.84 83.8319 1119.44 77.31C1097.83 73.3616 1083.1 107.318 1079.18 159.437C1075.25 211.556 1112.56 266.044 1071.32 268.413C1030.08 270.782 1052.66 224.191 1054.63 177.6C1056.59 131.008 1046.04 128.754 1019.28 109.687C1004.38 99.076 991.957 83.666 974.107 90.7346C957.661 97.247 957.413 106.528 961.341 127.06C965.269 147.592 984.234 204.577 946.612 203.659C909.148 202.745 946.785 155.627 934.828 127.06C926.184 106.407 940.72 88.3656 903.405 77.31C890.64 76.5203 876.892 79.6791 874.929 103.37C872.965 127.06 895.55 161.016 863.145 159.437C830.74 157.858 848.416 109.687 848.416 109.687C848.416 109.687 857.253 83.6275 836.632 77.31C816.011 70.9925 822.884 113.635 797.353 109.687C771.822 105.739 766.913 63.8854 742.364 64.6751C717.814 65.4648 716.833 75.7306 716.833 109.687C716.833 143.643 727.634 226.56 693.265 228.14C658.897 229.719 669.698 196.552 673.626 165.755C677.554 134.957 665.771 101 652.023 77.31C638.276 53.6195 607.835 42.5639 592.123 55.9886C576.412 69.4132 582.304 63.0957 583.286 84.4172C584.268 105.739 598.997 138.905 571.502 141.274C544.007 143.643 562.664 70.2029 548.917 70.2029C535.169 70.2029 533.173 81.9791 520.44 84.4172C511.114 86.2029 495.891 84.4172 495.891 84.4172C495.891 84.4172 462.504 83.6275 455.631 97.8418C448.757 112.056 455.631 119.163 455.631 127.06C455.631 134.957 470.36 178.389 434.027 177.6C397.695 176.81 421.262 127.06 417.334 97.8418C414.388 89.1553 417.334 75.7306 385.911 77.31C374.347 77.9757 371.5 76.5203 371.5 97.8418C368 135 350.561 89.945 347.615 103.37C344.669 116.794 347.615 154.699 335.831 154.699C324.048 154.699 329.939 127.06 328.957 119.163C327.975 111.266 325.03 108.897 315.21 109.687C305.39 110.477 303.426 117.584 303.426 141.274C303.426 164.965 320.12 194.183 295.571 195.763C271.022 197.342 292.625 138.116 286.733 119.163C280.841 100.211 277.895 78.8894 249.418 77.31C232.725 77.31 217.014 71.7822 203.266 165.755C197.374 206.028 242.545 269.993 189.519 268.413C136.493 266.834 203.266 194.183 172.825 127.06C159.078 109.687 151.195 117.276 138.457 109.687C123.615 100.845 123.727 84.4172 103.106 84.4172C82.4848 84.4172 84.4488 97.8418 84.4488 97.8418C84.4488 97.8418 96.2323 203.659 69.7193 203.659Z" fill="#DDF6FF"/>
</svg>
