<?xml version="1.0" encoding="utf-8"?>
<!-- Generator: Adobe Illustrator 25.2.0, SVG Export Plug-In . SVG Version: 6.00 Build 0)  -->
<svg version="1.1" id="Layer_1" xmlns="http://www.w3.org/2000/svg" xmlns:xlink="http://www.w3.org/1999/xlink" x="0px" y="0px"
	 viewBox="0 0 100 25" style="enable-background:new 0 0 100 25;" xml:space="preserve">
<style type="text/css">
	.st0{fill:#8F5CA6;}
	.st1{fill:#FDBA12;}
	.st2{fill:#6AC6B6;}
	.st3{fill:#F15E60;}
	.st4{fill:#5EBB55;}
	.st5{fill:#39B8EA;}
</style>
<g>
	<polygon class="st0" points="45.79,8.26 48.63,8.32 48.63,10.15 47.68,10.15 	"/>
	<g>
		<g>
			<polygon class="st1" points="8.11,10.63 8.11,13.33 3.56,13.33 3.56,18.19 0.6,18.19 2.29,19.88 5.35,19.88 5.35,15.01 
				10.02,15.01 10.02,12.57 			"/>
			<polygon class="st2" points="8.08,5.65 10.02,7.59 10.02,10.07 3.43,10.07 3.43,8.31 8.11,8.31 			"/>
			<polygon points="2.8,7.73 2.8,9.84 7.7,9.84 7.7,12.64 2.8,12.64 2.8,17.54 0,17.54 0,4.94 7.7,4.94 7.7,7.73 			"/>
		</g>
		<g>
			<polygon class="st0" points="70.74,5.53 72.22,8.77 72.86,7.6 			"/>
			<polygon class="st3" points="77.63,5.53 74.08,12.98 74.08,18.19 71.07,18.19 72.77,19.89 75.87,19.89 75.87,14.72 79.24,7.42 
							"/>
			<polygon points="77,4.97 73.42,12.44 73.42,17.54 70.62,17.54 70.62,12.44 66.93,4.97 67,4.94 70.01,4.94 70.62,6.22 71.96,9.01 
				73.42,5.98 73.92,4.94 76.93,4.94 			"/>
		</g>
		<g>
			<polygon class="st0" points="79.93,8.32 82.54,8.32 82.54,10.15 81.77,10.15 			"/>
			<polygon class="st4" points="88.31,5.53 88.31,8.32 85.65,8.32 85.65,18.09 82.66,18.09 84.39,19.82 87.49,19.82 87.49,10.02 
				90.3,10.02 90.3,7.29 			"/>
			<polygon points="87.74,4.94 84.95,4.94 82.15,4.94 79.36,4.94 79.36,7.74 82.15,7.74 82.15,17.54 84.95,17.54 84.95,7.74 
				87.74,7.74 			"/>
		</g>
		<g>
			<polygon class="st4" points="54.32,5.53 54.32,8.26 51.54,8.26 51.54,18.17 48.73,18.17 50.42,19.86 53.38,19.86 53.38,10.15 
				56.42,10.15 56.42,7.6 			"/>
			<polygon points="53.7,4.94 50.9,4.94 48.1,4.94 45.31,4.94 45.31,7.74 48.1,7.74 48.1,17.54 50.9,17.54 50.9,7.74 53.7,7.74 			
				"/>
		</g>
		<g>
			<polygon class="st0" points="98.19,10.51 98.19,13.33 93.8,13.33 93.8,14.92 99.9,14.92 99.9,12.22 			"/>
			<polygon class="st3" points="98.26,5.53 98.26,8.18 93.69,8.18 93.69,9.92 100,9.92 100,7.34 			"/>
			<polygon class="st3" points="98.21,15.38 98.21,18.19 90.88,18.19 92.55,19.86 99.9,19.86 99.9,17.14 			"/>
			<polygon points="92.99,7.73 92.99,9.84 97.89,9.84 97.89,12.64 92.99,12.64 92.99,14.74 97.89,14.74 97.89,17.54 90.2,17.54 
				90.2,4.94 97.89,4.94 97.89,7.73 			"/>
		</g>
		<g>
			<path class="st1" d="M18.58,7.6c0,0,1.23,1.63,0.69,3.49c-0.54,1.86-2.43,3.19-2.96,3.4l2.89,3.63H15.1l1.84,1.84h4.03
				l-2.94-3.76c0,0,2.94-1.48,2.94-4.32S18.58,7.6,18.58,7.6z"/>
			<path class="st2" d="M13.39,8.26v9.96h-2.94l1.75,1.75h2.9v-1.88l-0.91-0.91l2.11-6.55l-0.28-1.35
				C16.02,9.28,14.95,8.39,13.39,8.26z"/>
			<path d="M18.73,9.55c0-5.21-6.38-4.61-6.38-4.61h-2.5v12.6h2.8v-2.37l1.89,2.37h4.09l-3.03-3.61
				C15.59,13.93,18.73,12.83,18.73,9.55z M12.64,11.52V7.6c0.78,0.04,2.82,0.29,2.82,2C15.46,11.18,13.32,11.46,12.64,11.52z"/>
		</g>
		<g>
			<path class="st5" d="M64.59,12.52c0,0,1.58,2.43-0.26,4.24c-1.84,1.81-7.48,1.43-7.48,1.43l1.74,1.74c0,0,8.34,1.35,8.34-3.96
				C66.93,14.16,65.95,13.61,64.59,12.52z"/>
			<path class="st5" d="M59.63,8.32v1.63h1.76C61.39,9.95,61.85,8.32,59.63,8.32z"/>
			<path class="st3" d="M64,7.29c0,0,1.34,2.53-0.26,4.15l2.03,1.89C65.76,13.33,68.16,10.4,64,7.29z"/>
			<path class="st3" d="M59.78,13.22v1.85h1.9C61.67,15.08,62.14,13.21,59.78,13.22z"/>
			<path d="M63.1,10.91c0,0,0.96-0.89,0.96-2.22c0-4.03-5.29-3.75-5.29-3.75h-2.66v12.6h2.66c0,0,5.82,0.52,5.82-3.77
				C64.59,11.71,63.1,10.91,63.1,10.91z M60.65,8.75c0,1.02-1.32,1.18-1.74,1.2V7.6C59.33,7.6,60.65,7.67,60.65,8.75z M58.9,14.91
				v-2.39c0.52,0,2.36,0.06,2.36,1.17C61.26,14.93,59.42,14.93,58.9,14.91z"/>
		</g>
		<g>
			<path class="st3" d="M43.09,12.52c0,0,1.46,2.58-0.54,4.29c-1.99,1.71-6.72,1.2-6.72,1.2l1.79,1.81c0,0,7.69,0.74,7.69-3.78
				C45.31,16.05,45.53,14.23,43.09,12.52z"/>
			<path class="st4" d="M42.78,5.71v3.27c0,0-0.97-0.71-2.2-0.71c-1.23,0-2.6,1.07-2.6,1.48s2.58,1.2,2.58,1.2s0.38-0.82,1.79-0.82
				c1.4,0,2.25,0.64,2.25,0.64V7.6L42.78,5.71z"/>
			<path class="st4" d="M36.04,11.76c0,0,2.5,2.58,3.86,2.94l0.49-1.04C40.38,13.65,37.1,12.98,36.04,11.76z"/>
			<path d="M42.12,8.39c0,0-0.38-0.79-1.84-0.79c-0.94,0-2.42,0.49-2.53,1.18c-0.27,1.75,5.23,1.18,5.23,4.79
				c0,4.93-7.76,3.83-7.76,3.83v-3.09c0,0,1.48,0.6,2.07,0.6c0.59,0,2.55-0.35,2.55-1.2c0-1.58-5.31-0.86-5.31-4.94
				c0-4.81,7.63-3.68,7.63-3.68L42.12,8.39z"/>
		</g>
		<g>
			<path class="st4" d="M31.29,7.34c0,0,1.43,1.43,1.43,4.72s-2.16,6.13-5.48,6.13c-1.36,0-2.48-0.49-3.07-0.92
				c0,0,1.71,2.69,4.7,2.69s5.67-2.69,5.67-6.63S31.29,7.34,31.29,7.34z"/>
			<path class="st2" d="M28,8.36c0,0-1.1-0.28-1.97,0.44s-1.29,4.13-0.64,6.46h1.58c0,0-0.46-2.46,0.15-3.95
				c0.61-1.49,2.27-1.23,2.27-1.23l-0.92-1.81L28,8.36z"/>
			<path d="M26.68,4.98c-3.02,0-5.48,2.83-5.48,6.32c0,3.49,2.45,6.33,5.48,6.33c3.03,0,5.48-2.83,5.48-6.33
				C32.16,7.81,29.71,4.98,26.68,4.98z M26.68,15.01c-1.2,0-2.18-1.66-2.18-3.7c0-2.04,0.98-3.7,2.18-3.7c1.21,0,2.18,1.66,2.18,3.7
				C28.87,13.35,27.89,15.01,26.68,15.01z"/>
		</g>
	</g>
</g>
</svg>
