<?xml version="1.0" encoding="utf-8"?>
<!-- Generator: Adobe Illustrator 25.2.0, SVG Export Plug-In . SVG Version: 6.00 Build 0)  -->
<svg version="1.1" id="Layer_1" xmlns="http://www.w3.org/2000/svg" xmlns:xlink="http://www.w3.org/1999/xlink" x="0px" y="0px"
	 viewBox="0 0 100 25" style="enable-background:new 0 0 100 25;" xml:space="preserve">
<style type="text/css">
	.st0{fill:#8F5CA6;}
	.st1{fill:#FDBA12;}
	.st2{fill:#6AC6B6;}
	.st3{fill:#F15E60;}
	.st4{fill:#5EBB55;}
	.st5{fill:#39B8EA;}
	.st6{font-family:'ArialNarrow';}
	.st7{font-size:5.4811px;}
</style>
<g>
	<polygon class="st0" points="45.79,4.5 48.63,4.57 48.63,6.39 47.68,6.39 	"/>
	<g>
		<g>
			<polygon class="st1" points="8.11,6.88 8.11,9.58 3.56,9.58 3.56,14.44 0.6,14.44 2.29,16.12 5.35,16.12 5.35,11.25 10.02,11.25 
				10.02,8.82 			"/>
			<polygon class="st2" points="8.08,1.9 10.02,3.84 10.02,6.32 3.43,6.32 3.43,4.55 8.11,4.55 			"/>
			<polygon points="2.8,3.98 2.8,6.09 7.7,6.09 7.7,8.88 2.8,8.88 2.8,13.78 0,13.78 0,1.18 7.7,1.18 7.7,3.98 			"/>
		</g>
		<g>
			<polygon class="st0" points="70.74,1.77 72.22,5.02 72.86,3.84 			"/>
			<polygon class="st3" points="77.63,1.77 74.08,9.23 74.08,14.44 71.07,14.44 72.77,16.14 75.87,16.14 75.87,10.96 79.24,3.66 			
				"/>
			<polygon points="77,1.22 73.42,8.69 73.42,13.78 70.62,13.78 70.62,8.69 66.93,1.22 67,1.18 70.01,1.18 70.62,2.46 71.96,5.26 
				73.42,2.22 73.92,1.18 76.93,1.18 			"/>
		</g>
		<g>
			<polygon class="st0" points="79.93,4.57 82.54,4.57 82.54,6.39 81.77,6.39 			"/>
			<polygon class="st4" points="88.31,1.77 88.31,4.57 85.65,4.57 85.65,14.33 82.66,14.33 84.39,16.06 87.49,16.06 87.49,6.26 
				90.3,6.26 90.3,3.53 			"/>
			<polygon points="87.74,1.18 84.95,1.18 82.15,1.18 79.36,1.18 79.36,3.98 82.15,3.98 82.15,13.78 84.95,13.78 84.95,3.98 
				87.74,3.98 			"/>
		</g>
		<g>
			<polygon class="st4" points="54.32,1.77 54.32,4.5 51.54,4.5 51.54,14.41 48.73,14.41 50.42,16.1 53.38,16.1 53.38,6.39 
				56.42,6.39 56.42,3.84 			"/>
			<polygon points="53.7,1.18 50.9,1.18 48.1,1.18 45.31,1.18 45.31,3.98 48.1,3.98 48.1,13.78 50.9,13.78 50.9,3.98 53.7,3.98 			
				"/>
		</g>
		<g>
			<polygon class="st0" points="98.19,6.75 98.19,9.58 93.8,9.58 93.8,11.17 99.9,11.17 99.9,8.46 			"/>
			<polygon class="st3" points="98.26,1.77 98.26,4.43 93.69,4.43 93.69,6.16 100,6.16 100,3.58 			"/>
			<polygon class="st3" points="98.21,11.63 98.21,14.44 90.88,14.44 92.55,16.1 99.9,16.1 99.9,13.39 			"/>
			<polygon points="92.99,3.98 92.99,6.09 97.89,6.09 97.89,8.88 92.99,8.88 92.99,10.99 97.89,10.99 97.89,13.78 90.2,13.78 
				90.2,1.18 97.89,1.18 97.89,3.98 			"/>
		</g>
		<g>
			<path class="st1" d="M18.58,3.85c0,0,1.23,1.63,0.69,3.49c-0.54,1.86-2.43,3.19-2.96,3.4l2.89,3.63H15.1l1.84,1.84h4.03
				l-2.94-3.76c0,0,2.94-1.48,2.94-4.32S18.58,3.85,18.58,3.85z"/>
			<path class="st2" d="M13.39,4.5v9.96h-2.94l1.75,1.75h2.9v-1.88l-0.91-0.91l2.11-6.55l-0.28-1.35
				C16.02,5.52,14.95,4.63,13.39,4.5z"/>
			<path d="M18.73,5.79c0-5.21-6.38-4.61-6.38-4.61h-2.5v12.6h2.8v-2.37l1.89,2.37h4.09l-3.03-3.61
				C15.59,10.17,18.73,9.07,18.73,5.79z M12.64,7.76V3.85c0.78,0.04,2.82,0.29,2.82,2C15.46,7.42,13.32,7.71,12.64,7.76z"/>
		</g>
		<g>
			<path class="st5" d="M64.59,8.76c0,0,1.58,2.43-0.26,4.24c-1.84,1.81-7.48,1.43-7.48,1.43l1.74,1.74c0,0,8.34,1.35,8.34-3.96
				C66.93,10.4,65.95,9.86,64.59,8.76z"/>
			<path class="st5" d="M59.63,4.57V6.2h1.76C61.39,6.2,61.85,4.57,59.63,4.57z"/>
			<path class="st3" d="M64,3.53c0,0,1.34,2.53-0.26,4.15l2.03,1.89C65.76,9.58,68.16,6.65,64,3.53z"/>
			<path class="st3" d="M59.78,9.47v1.85h1.9C61.67,11.32,62.14,9.46,59.78,9.47z"/>
			<path d="M63.1,7.16c0,0,0.96-0.89,0.96-2.22c0-4.03-5.29-3.75-5.29-3.75h-2.66v12.6h2.66c0,0,5.82,0.52,5.82-3.77
				C64.59,7.95,63.1,7.16,63.1,7.16z M60.65,4.99c0,1.02-1.32,1.18-1.74,1.2V3.84C59.33,3.84,60.65,3.92,60.65,4.99z M58.9,11.15
				V8.76c0.52,0,2.36,0.06,2.36,1.17C61.26,11.17,59.42,11.17,58.9,11.15z"/>
		</g>
		<g>
			<path class="st3" d="M43.09,8.76c0,0,1.46,2.58-0.54,4.29s-6.72,1.2-6.72,1.2l1.79,1.81c0,0,7.69,0.74,7.69-3.78
				C45.31,12.29,45.53,10.47,43.09,8.76z"/>
			<path class="st4" d="M42.78,1.95v3.27c0,0-0.97-0.71-2.2-0.71c-1.23,0-2.6,1.07-2.6,1.48c0,0.41,2.58,1.2,2.58,1.2
				s0.38-0.82,1.79-0.82c1.4,0,2.25,0.64,2.25,0.64V3.84L42.78,1.95z"/>
			<path class="st4" d="M36.04,8c0,0,2.5,2.58,3.86,2.94l0.49-1.04C40.38,9.9,37.1,9.22,36.04,8z"/>
			<path d="M42.12,4.63c0,0-0.38-0.79-1.84-0.79c-0.94,0-2.42,0.49-2.53,1.18c-0.27,1.75,5.23,1.18,5.23,4.79
				c0,4.93-7.76,3.83-7.76,3.83v-3.09c0,0,1.48,0.6,2.07,0.6c0.59,0,2.55-0.35,2.55-1.2c0-1.58-5.31-0.86-5.31-4.94
				c0-4.81,7.63-3.68,7.63-3.68L42.12,4.63z"/>
		</g>
		<g>
			<path class="st4" d="M31.29,3.58c0,0,1.43,1.43,1.43,4.72s-2.16,6.13-5.48,6.13c-1.36,0-2.48-0.49-3.07-0.92
				c0,0,1.71,2.69,4.7,2.69s5.67-2.69,5.67-6.63S31.29,3.58,31.29,3.58z"/>
			<path class="st2" d="M28,4.6c0,0-1.1-0.28-1.97,0.44s-1.29,4.13-0.64,6.46h1.58c0,0-0.46-2.46,0.15-3.95
				c0.61-1.49,2.27-1.23,2.27-1.23L28.48,4.5L28,4.6z"/>
			<path d="M26.68,1.22c-3.02,0-5.48,2.83-5.48,6.32c0,3.49,2.45,6.33,5.48,6.33c3.03,0,5.48-2.83,5.48-6.33
				C32.16,4.06,29.71,1.22,26.68,1.22z M26.68,11.25c-1.2,0-2.18-1.66-2.18-3.7c0-2.04,0.98-3.7,2.18-3.7c1.21,0,2.18,1.66,2.18,3.7
				C28.87,9.59,27.89,11.25,26.68,11.25z"/>
		</g>
	</g>
	<text transform="matrix(1 0 0 1 27.3486 22.1572)" class="st6 st7">bite intp icy bliss.</text>
</g>
</svg>
